<svg width="33" height="33" viewBox="0 0 33 33" fill="none" xmlns="http://www.w3.org/2000/svg">
  <style>
    @media (prefers-color-scheme: dark) {
      .light-mode { display: none; }
    }

    @media (prefers-color-scheme: light) {
      .dark-mode { display: none; }
    }
  </style>
<path class="light-mode" fill="black" d="M1.46495 25.195L7.46041 21.7346C9.35191 20.6442 11.686 20.7862 13.4827 22.0247C14.2216 22.5328 15.0284 22.9278 15.8723 23.2014C17.2863 23.6623 18.8093 23.7755 20.3015 23.51C21.3223 23.3269 22.3288 22.9711 23.2776 22.4217C26.3176 20.6669 27.9724 17.4327 27.855 14.1513C27.8921 11.2402 29.0324 8.94218 30.9073 7.23874L30.963 7.19349C31.2881 6.92602 30.9383 6.42192 30.5739 6.63173L24.3274 10.2361C22.4606 11.195 20.143 11.0899 18.3791 9.98523C17.6732 9.51409 16.9075 9.14785 16.109 8.89066C14.695 8.42993 13.1719 8.31675 11.6797 8.58209C10.6588 8.7652 9.65248 9.12316 8.70366 9.67038C5.69664 11.4048 4.04591 14.5855 4.12212 17.8278C4.12413 20.4344 3.10323 22.6501 1.06978 24.6271C0.742527 24.8988 1.09654 25.4069 1.46289 25.1929L1.46495 25.195ZM19.6532 14.6985L23.5638 12.4417C23.9774 12.2031 24.5188 12.4087 24.6464 12.8716C25.3173 15.3322 24.3932 18.017 22.2506 19.5229C22.1003 19.63 21.9439 19.7308 21.7793 19.8254C20.7914 20.3953 19.715 20.6606 18.6509 20.6503C16.7471 20.6381 14.8947 19.739 13.7174 18.1261C13.7174 18.1261 13.5363 17.8381 13.353 17.5212C13.1246 17.1303 12.6224 16.9965 12.2293 17.2229L8.41137 19.4263C7.95437 19.6896 7.37192 19.4325 7.26088 18.9181C6.74422 16.544 7.67863 14.0197 9.7327 12.5754C9.88298 12.4684 10.0394 12.3676 10.204 12.273C11.1919 11.7031 12.2684 11.4376 13.3324 11.448C15.1726 11.4603 16.961 12.2997 18.1425 13.8097C18.1425 13.8097 18.3874 14.1102 18.6159 14.4579C18.8443 14.8055 19.2971 14.9063 19.6532 14.7006V14.6985Z" />
<path class="dark-mode" fill="white" d="M1.46495 25.195L7.46041 21.7346C9.35191 20.6442 11.686 20.7862 13.4827 22.0247C14.2216 22.5328 15.0284 22.9278 15.8723 23.2014C17.2863 23.6623 18.8093 23.7755 20.3015 23.51C21.3223 23.3269 22.3288 22.9711 23.2776 22.4217C26.3176 20.6669 27.9724 17.4327 27.855 14.1513C27.8921 11.2402 29.0324 8.94218 30.9073 7.23874L30.963 7.19349C31.2881 6.92602 30.9383 6.42192 30.5739 6.63173L24.3274 10.2361C22.4606 11.195 20.143 11.0899 18.3791 9.98523C17.6732 9.51409 16.9075 9.14785 16.109 8.89066C14.695 8.42993 13.1719 8.31675 11.6797 8.58209C10.6588 8.7652 9.65248 9.12316 8.70366 9.67038C5.69664 11.4048 4.04591 14.5855 4.12212 17.8278C4.12413 20.4344 3.10323 22.6501 1.06978 24.6271C0.742527 24.8988 1.09654 25.4069 1.46289 25.1929L1.46495 25.195ZM19.6532 14.6985L23.5638 12.4417C23.9774 12.2031 24.5188 12.4087 24.6464 12.8716C25.3173 15.3322 24.3932 18.017 22.2506 19.5229C22.1003 19.63 21.9439 19.7308 21.7793 19.8254C20.7914 20.3953 19.715 20.6606 18.6509 20.6503C16.7471 20.6381 14.8947 19.739 13.7174 18.1261C13.7174 18.1261 13.5363 17.8381 13.353 17.5212C13.1246 17.1303 12.6224 16.9965 12.2293 17.2229L8.41137 19.4263C7.95437 19.6896 7.37192 19.4325 7.26088 18.9181C6.74422 16.544 7.67863 14.0197 9.7327 12.5754C9.88298 12.4684 10.0394 12.3676 10.204 12.273C11.1919 11.7031 12.2684 11.4376 13.3324 11.448C15.1726 11.4603 16.961 12.2997 18.1425 13.8097C18.1425 13.8097 18.3874 14.1102 18.6159 14.4579C18.8443 14.8055 19.2971 14.9063 19.6532 14.7006V14.6985Z" />
</svg>
